<svg width="533" height="255" viewBox="0 0 533 255" xmlns="http://www.w3.org/2000/svg" style="margin-left:auto;margin-right:auto" display="block"><path d="M0 0v255h533V0z" fill="#FFF" fill-opacity="0"/><path d="M143.7 169.5l-43.9-64.3h-.9v64.3H85.2V84.3h15.6l43.9 64.7h.6V84.3h13.8v85.2zm75.9-68.1h13.8l18.7 53.9h.2l19.1-53.9h13.5l-25.5 68.1h-14.9zm10.6 68.1h-13.7l-18.8-53.9h-.2l-19.1 53.9h-13.5l25.5-68.1h14.9z" fill="#333332"/><path d="M315.1 169.5l-31-85.2h14.7l24.3 69.3h.8l24.7-69.3h14.5l-31.7 85.2zM364 101h13v68h-13v-68zm54.3 70.3c-4.3 0-8.3-.5-12.1-1.5-3.7-.9-7-2.4-9.8-4.4-2.8-2-5.1-4.5-6.7-7.6-1.7-3.1-2.6-6.8-2.7-11v-.1h13.3v.1c0 2.6.5 4.8 1.4 6.7 1 1.8 2.4 3.3 4.1 4.5 1.7 1.1 3.7 2 6 2.5 2.2.6 4.7.8 7.3.8 2.9 0 5.3-.3 7.3-.9 2-.6 3.7-1.3 4.9-2.3 1.2-.9 2.2-2 2.7-3.2.6-1.3.8-2.5.8-3.8 0-2.6-.6-4.5-1.9-5.7-1.3-1.2-2.7-2.1-4.2-2.6-2.6-.9-5.7-1.7-9.2-2.5-3.5-.8-7.9-1.9-13.1-3.1-3.2-.8-5.9-1.8-8-3.1-2.1-1.2-3.8-2.6-5.1-4.1-1.2-1.6-2.1-3.2-2.7-4.9-.5-1.8-.7-3.5-.7-5.3 0-3.4.8-6.5 2.3-9 1.6-2.5 3.7-4.6 6.3-6.3 2.5-1.6 5.5-2.9 8.8-3.7 3.3-.7 6.6-1.1 9.9-1.1 3.9 0 7.7.4 11.1 1.3 3.5 1 6.5 2.4 9.1 4.2 2.7 1.9 4.8 4.2 6.3 6.9s2.3 5.8 2.3 9.4v.1h-13.3v-.1c-.3-4.3-1.9-7.4-4.8-9.2-2.9-1.8-6.7-2.7-11.2-2.7-1.5 0-3.1.1-4.7.4-1.5.3-3 .7-4.3 1.4-1.3.7-2.4 1.6-3.3 2.7-.9 1.1-1.3 2.6-1.3 4.3 0 2.3.8 4.2 2.4 5.6 1.7 1.3 3.8 2.4 6.4 3.1.3 0 1.4.3 3.3.8 2 .5 4.1 1 6.5 1.6 2.3.5 4.7 1.1 6.9 1.6 2.3.6 3.9 1 4.9 1.2 2.4.7 4.6 1.7 6.4 2.9 1.8 1.2 3.3 2.6 4.6 4.2 1.2 1.5 2.1 3.2 2.7 5 .6 1.8.9 3.6.9 5.4 0 3.8-.9 7.1-2.6 9.8-1.7 2.7-4 5-6.8 6.7-2.7 1.7-6 3-9.5 3.8-3.5.8-7.2 1.2-10.9 1.2z" fill="#3298c7"/></svg>